<?xml version="1.0" encoding="utf-8"?>
<!-- Generator: Adobe Illustrator 19.0.0, SVG Export Plug-In . SVG Version: 6.00 Build 0)  -->
<!DOCTYPE svg PUBLIC "-//W3C//DTD SVG 1.1//EN" "http://www.w3.org/Graphics/SVG/1.1/DTD/svg11.dtd">
<svg version="1.1" id="Layer_1" xmlns="http://www.w3.org/2000/svg" xmlns:xlink="http://www.w3.org/1999/xlink" x="0px" y="0px"
	 viewBox="0 0 335 480" style="enable-background:new 0 0 335 480;" xml:space="preserve">
<style type="text/css">
	.st0{fill:#FFFFFF;}
</style>
<g id="XMLID_54_">
	<g id="XMLID_73_">
		<path id="XMLID_83_" class="st0" d="M19.4,367.4h19.2l22.7,69.2L84,367.4h19.2l-32.6,97.5H52L19.4,367.4z"/>
		<rect id="XMLID_82_" x="107.1" y="398.2" class="st0" width="18.3" height="66.8"/>
		<path id="XMLID_80_" class="st0" d="M131.4,448.7l35.1-34.3h-34.6v-16.2h59.2v16.4L156,448.8h35.8v16.2h-60.4V448.7z"/>
		<path id="XMLID_77_" class="st0" d="M193.1,431.6c0-19.2,15.4-34.7,34.6-34.7s34.6,15.5,34.6,34.7c0,19.2-15.4,34.7-34.6,34.7
			S193.1,450.8,193.1,431.6z M244.5,431.6c0-9.5-7.5-17.4-16.8-17.4c-9.5,0-16.7,7.9-16.7,17.4s7.2,17.4,16.7,17.4
			C237,448.9,244.5,441,244.5,431.6z"/>
		<path id="XMLID_75_" class="st0" d="M266.9,398.2h18.2v11c3.3-6.9,9.4-11,18.4-11h7.3v17.8h-11.6c-9.8,0-14,5.1-14,17.5v31.5
			h-18.3V398.2z"/>
		<circle id="XMLID_74_" class="st0" cx="116.2" cy="376.7" r="9.2"/>
	</g>
	<path id="XMLID_48_" class="st0" d="M165.1,11.8C81.7,11.8,13.9,79.6,13.9,163s67.8,151.2,151.2,151.2S316.3,246.4,316.3,163
		S248.5,11.8,165.1,11.8z M231.3,56.7L205,102.8c-1.7-0.1-3.5-0.2-5.2-0.2h-69.3c-1.8,0-3.5,0.1-5.2,0.2L98.9,56.7
		c19.2-12,41.9-19,66.2-19C189.4,37.7,212.1,44.7,231.3,56.7z M199.8,197.6h-69.3c-19,0-34.5-15.5-34.5-34.6
		c0-19.1,15.5-34.6,34.5-34.6h69.3c19,0,34.5,15.5,34.5,34.6C234.3,182.1,218.8,197.6,199.8,197.6z M39.8,163
		c0-35.4,14.8-67.4,38.4-90.2l21.7,38c-17.9,10.5-29.9,29.9-29.9,52.2c0,22.2,12,41.7,29.9,52.2l-21.7,38
		C54.6,230.4,39.8,198.4,39.8,163z M98.9,269.4l26.3-46.1c1.7,0.1,3.5,0.2,5.2,0.2h69.3c1.8,0,3.5-0.1,5.2-0.2l26.3,46.1
		c-19.2,12-41.9,19-66.2,19C140.8,288.3,118.1,281.4,98.9,269.4z M252,253.2l-21.7-38c17.9-10.5,29.9-29.9,29.9-52.2
		c0-22.2-12-41.7-29.9-52.2l21.7-38c23.7,22.8,38.4,54.8,38.4,90.2C290.4,198.4,275.7,230.4,252,253.2z"/>
</g>
</svg>
