<?xml version="1.0" encoding="UTF-8" standalone="no"?>
<svg width="20px" height="20px" viewBox="0 0 32 32" version="1.1" xmlns="http://www.w3.org/2000/svg" xmlns:xlink="http://www.w3.org/1999/xlink">
    <g stroke="none" stroke-width="1" fill="#FFFFFF" fill-rule="evenodd" transform="translate(6.3,6.3)">
        <path d="M9.63366337,0.0643724696 C4.33169974,0.0643724696 0.018278751,4.36366794 0.018278751,9.64812753 C0.018278751,14.9326505 4.33169974,19.2318826 9.63366337,19.2318826 C14.935627,19.2318826 19.249048,14.9326505 19.249048,9.64812753 C19.249048,4.36366794 14.935627,0.0643724696 9.63366337,0.0643724696 L9.63366337,0.0643724696 Z M13.8430607,2.90921208 L12.1686359,5.82984818 C12.0590169,5.82046868 11.9483804,5.81463818 11.8362816,5.81463818 L7.43098154,5.81463818 C7.31894628,5.81463818 7.20824629,5.82046868 7.09862723,5.82984818 L5.42420245,2.90921208 C6.6464804,2.14801516 8.08926816,1.70730553 9.63366337,1.70730553 C11.1780586,1.70730553 12.6208463,2.14801516 13.8430607,2.90921208 L13.8430607,2.90921208 Z M11.8362816,11.8386838 L7.43098154,11.8386838 C6.22180192,11.8386838 5.23802809,10.8559913 5.23802809,9.64812753 C5.23802809,8.44026373 6.22180192,7.45757124 7.43098154,7.45757124 L11.8362816,7.45757124 C13.0455248,7.45757124 14.0292351,8.44026373 14.0292351,9.64812753 C14.0292351,10.8559913 13.0455248,11.8386838 11.8362816,11.8386838 L11.8362816,11.8386838 Z M1.66657045,9.64812753 C1.66657045,7.40465313 2.60513596,5.37576642 4.11112635,3.93024644 L5.49211032,6.33900279 C4.35414494,7.00444011 3.58967281,8.23683003 3.58967281,9.64812753 C3.58967281,11.0566365 4.35452644,12.2900404 5.49261899,12.956365 L4.11112635,15.366072 C2.60513596,13.920552 1.66657045,11.8916653 1.66657045,9.64812753 L1.66657045,9.64812753 Z M5.42420245,16.387043 L7.09869082,13.4664069 C7.20830988,13.4757864 7.31894628,13.4816169 7.43098154,13.4816169 L11.8362816,13.4816169 C11.9483804,13.4816169 12.0590169,13.4757864 12.1686359,13.4664703 L13.8430607,16.387043 C12.6208463,17.1482399 11.1780586,17.5889495 9.63366337,17.5889495 C8.08926816,17.5889495 6.6464804,17.1482399 5.42420245,16.387043 L5.42420245,16.387043 Z M15.1561368,15.366072 L13.7751528,12.9572523 C14.9131818,12.2918149 15.6775903,11.0594884 15.6775903,9.64812753 C15.6775903,8.23961853 14.9128003,7.00621461 13.7746442,6.33989004 L15.1561368,3.93024644 C16.6621908,5.37576642 17.6006927,7.40465313 17.6006927,9.64812753 C17.6006927,11.8916653 16.6621272,13.920552 15.1561368,15.366072 L15.1561368,15.366072 Z" />
    </g>
</svg>