<?xml version="1.0" encoding="UTF-8" standalone="no"?>
<svg width="120px" height="30px" viewBox="0 0 120 30" version="1.1" xmlns="http://www.w3.org/2000/svg" xmlns:xlink="http://www.w3.org/1999/xlink">
    <!-- 4 keys 30px each: ⌘⌃⌥⇧ -->
    <g fill="#AFBFDF" transform="translate(0 0.4)">
    	<path stroke="none" d="M13.9882812,16.453125 L16.0117188,16.453125 L16.0117188,14.4296875 L13.9882812,14.4296875 L13.9882812,16.453125 Z M13.9882812,17.4648438 L13.9882812,18.6269531 C13.9882813,19.2102894 13.7775086,19.7104471 13.355957,20.1274414 C12.9344054,20.5444357 12.4274118,20.7529297 11.8349609,20.7529297 C11.2425101,20.7529297 10.7366557,20.5432964 10.3173828,20.1240234 C9.89810988,19.7047505 9.68847656,19.1966176 9.68847656,18.5996094 C9.68847656,18.0162731 9.89810988,17.5126974 10.3173828,17.0888672 C10.7366557,16.6650369 11.2356742,16.453125 11.8144531,16.453125 L12.9765625,16.453125 L12.9765625,14.4296875 L11.8144531,14.4296875 C11.2356742,14.4296875 10.7366557,14.2177756 10.3173828,13.7939453 C9.89810988,13.3701151 9.68847656,12.8642608 9.68847656,12.2763672 C9.68847656,11.6839163 9.89810988,11.178062 10.3173828,10.7587891 C10.7366557,10.3395161 11.2425101,10.1298828 11.8349609,10.1298828 C12.4274118,10.1298828 12.9344054,10.3383768 13.355957,10.7553711 C13.7775086,11.1723654 13.9882813,11.6725231 13.9882812,12.2558594 L13.9882812,13.4179688 L16.0117188,13.4179688 L16.0117188,12.2558594 C16.0117188,11.6725231 16.2224914,11.1723654 16.644043,10.7553711 C17.0655946,10.3383768 17.5725882,10.1298828 18.1650391,10.1298828 C18.7620473,10.1298828 19.2690409,10.3395161 19.6860352,10.7587891 C20.1030294,11.178062 20.3115234,11.6839163 20.3115234,12.2763672 C20.3115234,12.8642608 20.1030294,13.3701151 19.6860352,13.7939453 C19.2690409,14.2177756 18.7688831,14.4296875 18.1855469,14.4296875 L17.0234375,14.4296875 L17.0234375,16.453125 L18.1855469,16.453125 C18.7688831,16.453125 19.2690409,16.6650369 19.6860352,17.0888672 C20.1030294,17.5126974 20.3115234,18.0162731 20.3115234,18.5996094 C20.3115234,19.1966176 20.1030294,19.7047505 19.6860352,20.1240234 C19.2690409,20.5432964 18.7620473,20.7529297 18.1650391,20.7529297 C17.5725882,20.7529297 17.0655946,20.5444357 16.644043,20.1274414 C16.2224914,19.7104471 16.0117188,19.2102894 16.0117188,18.6269531 L16.0117188,17.4648438 L13.9882812,17.4648438 Z M12.9765625,13.4179688 L12.9765625,12.2763672 C12.9765625,11.9619125 12.86491,11.6941743 12.6416016,11.4731445 C12.4182932,11.2521148 12.1494156,11.1416016 11.8349609,11.1416016 C11.5250636,11.1416016 11.2584647,11.2521148 11.0351562,11.4731445 C10.8118478,11.6941743 10.7001953,11.9619125 10.7001953,12.2763672 C10.7001953,12.5908219 10.8118478,12.8596994 11.0351562,13.0830078 C11.2584647,13.3063162 11.5273422,13.4179688 11.8417969,13.4179688 L12.9765625,13.4179688 Z M12.9765625,17.4648438 L11.8417969,17.4648438 C11.5273422,17.4648438 11.2584647,17.5764963 11.0351562,17.7998047 C10.8118478,18.0231131 10.7001953,18.289712 10.7001953,18.5996094 C10.7001953,18.9140641 10.8118478,19.1829416 11.0351562,19.40625 C11.2584647,19.6295584 11.5273422,19.7412109 11.8417969,19.7412109 C12.1516943,19.7412109 12.4182932,19.6295584 12.6416016,19.40625 C12.86491,19.1829416 12.9765625,18.9163427 12.9765625,18.6064453 L12.9765625,17.4648438 Z M17.0234375,13.4179688 L18.1650391,13.4179688 C18.4749364,13.4179688 18.7415353,13.3063162 18.9648438,13.0830078 C19.1881522,12.8596994 19.2998047,12.5908219 19.2998047,12.2763672 C19.2998047,11.9619125 19.1892915,11.6941743 18.9682617,11.4731445 C18.747232,11.2521148 18.4794938,11.1416016 18.1650391,11.1416016 C17.8505844,11.1416016 17.5817068,11.2521148 17.3583984,11.4731445 C17.13509,11.6941743 17.0234375,11.9619125 17.0234375,12.2763672 L17.0234375,13.4179688 Z M17.0234375,17.4648438 L17.0234375,18.6064453 C17.0234375,18.9163427 17.13509,19.1829416 17.3583984,19.40625 C17.5817068,19.6295584 17.8505844,19.7412109 18.1650391,19.7412109 C18.4794938,19.7412109 18.747232,19.6295584 18.9682617,19.40625 C19.1892915,19.1829416 19.2998047,18.9140641 19.2998047,18.5996094 C19.2998047,18.289712 19.1881522,18.0231131 18.9648438,17.7998047 C18.7415353,17.5764963 18.4749364,17.4648438 18.1650391,17.4648438 L17.0234375,17.4648438 Z" id="⌘-CMD"></path>
		<path stroke="none" d="M40.953125,14.4296875 L45,10.3828125 L49.0537109,14.4296875 L48.3359375,15.1474609 L45,11.8115234 L41.6708984,15.1474609 L40.953125,14.4296875 Z" id="⌃-CTRL"></path>
		<path stroke="none" d="M69.1826172,10.3828125 L73.1337891,10.3828125 L77.6865234,19.4882812 L80.8242188,19.4882812 L80.8242188,20.5 L76.8662109,20.5 L72.3134766,11.3945312 L69.1826172,11.3945312 L69.1826172,10.3828125 Z M76.09375,10.3828125 L80.8242188,10.3828125 L80.8242188,11.3945312 L76.09375,11.3945312 L76.09375,10.3828125 Z" id="⌥-ALT"></path>
		<path stroke="none" d="M97.9179688,16.5351562 L105.006836,9.453125 L112.082031,16.5351562 L108.541016,16.5351562 L108.53418,20.5 L101.452148,20.5 L101.458984,16.5351562 L97.9179688,16.5351562 Z M105.006836,11.1210938 L100.761719,15.3525391 L102.641602,15.3525391 L102.634766,19.3173828 L107.358398,19.3173828 L107.365234,15.3525391 L109.231445,15.3525391 L105.006836,11.1210938 Z" id="⇧-SHIFT"></path>
    </g>
</svg>