<svg width="100" height="22" viewBox="0 0 100 22" xmlns="http://www.w3.org/2000/svg">
    <path d="M.55 20.43V.57c0-.3.24-.57.57-.57h7.05c3.69 0 6.72 3 6.72 6.63 0 3.72-3.03 6.75-6.69 6.75H4.45v7.05c0 .3-.27.57-.57.57H1.12a.57.57 0 0 1-.57-.57zm3.9-10.71h3.6c1.68 0 2.97-1.35 2.97-3.12 0-1.65-1.29-2.91-2.97-2.91h-3.6v6.03zm12.18 6.87c0-2.46 2.01-4.35 5.52-4.35 1.41 0 2.67.39 2.67.39.06-1.77-.45-2.61-1.92-2.61-1.26 0-3.09.27-3.9.51-.45.15-.72-.18-.78-.6l-.3-1.56c-.12-.51.15-.75.45-.84.3-.12 2.49-.69 4.74-.69 4.32 0 5.22 2.25 5.22 6.03v7.47c0 .36-.3.66-.66.66h-1.02c-.24 0-.42-.09-.6-.48l-.39-.93c-.81.78-2.19 1.74-4.35 1.74-2.76 0-4.68-1.77-4.68-4.74zm3.6 0c0 1.17.72 1.95 2.01 1.95 1.23 0 2.31-.96 2.49-1.47v-2.04s-.93-.42-2.04-.42c-1.59 0-2.46.75-2.46 1.98zm12.75.27c0 2.4.78 4.47 3.87 4.47 1.44 0 3.42-.63 3.9-.9.33-.18.48-.45.39-.81l-.39-1.83c-.06-.33-.39-.51-.78-.36-.36.12-1.5.45-2.1.45-.69 0-1.14-.21-1.14-1.14V10.5h3.24c.36 0 .66-.33.66-.66V7.8c0-.39-.3-.66-.66-.66h-3.24V3.3c0-.36-.27-.66-.63-.66h-2.46c-.33 0-.66.3-.66.66v3.84h-1.35c-.36 0-.63.27-.63.66v2.04c0 .33.27.66.63.66h1.35v6.36zm9.93-2.79c0 4.17 3.27 7.26 7.32 7.26 2.46 0 4.32-1.08 5.49-2.91.24-.36.09-.69-.24-.99l-1.35-1.14c-.24-.21-.66-.15-.87.09-.6.69-1.41 1.53-2.94 1.53-2.16 0-3.63-1.68-3.63-3.84 0-2.13 1.5-3.81 3.66-3.81 1.29 0 2.1.57 2.76 1.2.27.27.6.42.9.09l1.26-1.38c.3-.3.45-.69.15-.99-1.32-1.41-3-2.34-5.16-2.34-4.11 0-7.35 3.15-7.35 7.23zm15.6 6.27c0 .36.33.66.66.66h2.37c.54 0 .72-.27.72-.66v-7.65c.36-1.41 1.26-2.43 2.88-2.43 1.65 0 2.52 1.17 2.52 3.09v6.99c0 .36.3.66.66.66h2.43c.33 0 .66-.3.66-.66v-6.96c0-3.48-1.2-6.54-5.61-6.54-1.65 0-2.85.57-3.54 1.17V.66c0-.33-.3-.66-.66-.66h-2.43c-.33 0-.66.33-.66.66v19.68zm15.72-6.27c0-3.9 2.88-7.23 6.99-7.23 3.6 0 6.36 2.67 6.36 6.42 0 .21-.03.69-.06.9-.03.36-.36.63-.66.63h-8.88c.03 1.71 1.44 3.21 3.45 3.21 1.38 0 2.34-.51 2.97-1.02.33-.27.69-.3.9 0l1.17 1.56c.24.27.27.6-.06.9a7.826 7.826 0 0 1-5.16 1.89c-4.14 0-7.02-3.3-7.02-7.26zm3.96-1.74h5.61c-.06-1.35-1.14-2.4-2.67-2.4-1.68 0-2.76 1.02-2.94 2.4zm16.32 9c3.48 0 5.34-1.95 5.34-4.14 0-2.76-1.92-3.72-4.59-4.8-1.29-.54-1.98-.87-1.98-1.5 0-.45.39-.9 1.32-.9 1.14 0 2.1.39 2.76.69.3.12.66.06.87-.27l.78-1.59c.18-.36 0-.72-.3-.96-.75-.48-2.07-1.02-4.11-1.02-3.39 0-4.98 1.95-4.98 4.05 0 2.1 1.2 3.36 3.87 4.38 1.83.72 2.61 1.29 2.61 1.92 0 .6-.48.99-1.53.99-1.44 0-2.43-.51-3.06-.9-.33-.21-.66-.09-.81.24l-.9 1.8c-.15.3 0 .63.18.75.78.54 2.22 1.26 4.53 1.26z" fill="#FFF" fill-rule="evenodd"/>
</svg>