<?xml version="1.0" standalone="no"?>
<!DOCTYPE svg PUBLIC "-//W3C//DTD SVG 1.1//EN" "http://www.w3.org/Graphics/SVG/1.1/DTD/svg11.dtd">
<svg width="100%" height="100%" viewBox="0 0 66 24" version="1.1" xmlns="http://www.w3.org/2000/svg" xmlns:xlink="http://www.w3.org/1999/xlink" xml:space="preserve" style="fill-rule:evenodd;clip-rule:evenodd;stroke-miterlimit:1.41421;">
<g id="Vizor-mark" style="stroke:none; fill: rgba(126,141,171,1);">
	<polyline points="1,1 5.199,1 10.156,16.305 15.113,1 19.312,1 12.197,22.568 8.115,22.568 1,1 "/>
	<rect x="20.154" y="7.795" width="3.994" height="14.773"/>
	<polyline points="25.458,18.965 33.128,11.372 25.576,11.372 25.576,7.795 38.493,7.795 38.493,11.43 30.825,18.994 38.641,18.994 38.641,22.568 25.458,22.568 25.458,18.965 "/>
	<path d="M50.152,15.182c0-2.098-1.633-3.84-3.674-3.84c-2.069,0-3.646,1.742-3.646,3.84c0,2.102,1.574,3.842,3.646,3.842C48.521,19.023,50.152,17.281,50.152,15.182z M38.927,15.182c0-4.253,3.354-7.682,7.554-7.682s7.553,3.428,7.553,7.682c0,4.256-3.354,7.686-7.553,7.686S38.927,19.438,38.927,15.182z"/>
	<path d="M55.05,7.795h3.966v2.424c0.729-1.537,2.041-2.424,4.024-2.424h1.604v3.93h-2.537c-2.129,0-3.063,1.123-3.063,3.871v6.973H55.05V7.795"/>
	<path d="M20.14,3.037C20.14,1.912,21.04,1,22.151,1c1.111,0,2.012,0.912,2.012,2.037c0,1.127-0.901,2.039-2.012,2.039C21.04,5.076,20.14,4.164,20.14,3.037"/>
</g>
</svg>

