<?xml version="1.0" encoding="UTF-8" standalone="no"?>
<svg width="44px" height="44px" viewBox="0 0 44 44" version="1.1" xmlns="http://www.w3.org/2000/svg" xmlns:xlink="http://www.w3.org/1999/xlink">
	<g>
		<path d="M18.2821865,6.96437303 C11.8881844,8.75968685 7.2,14.6323514 7.2,21.6 C7.2,29.9947282 14.0052718,36.8 22.4,36.8 C30.7947282,36.8 37.6,29.9947282 37.6,21.6 C37.6,14.6323514 32.9118156,8.75968685 26.5178135,6.96437303 L22.4,15.2 L18.2821865,6.96437303 Z" fill-opacity="0.2" fill="#000000" ></path>
		<path d="M18.2821865,6.96437303 C11.8881844,8.75968685 7.2,14.6323514 7.2,21.6 C7.2,29.9947282 14.0052718,36.8 22.4,36.8 C30.7947282,36.8 37.6,29.9947282 37.6,21.6 C37.6,14.6323514 32.9118156,8.75968685 26.5178135,6.96437303 L22.4,15.2 L18.2821865,6.96437303 Z M22.4,9.09494702e-13 C10.4706494,9.02389274e-13 0.8,9.6706494 0.8,21.6 C0.8,33.5293506 10.4706494,43.2 22.4,43.2 C34.3293506,43.2 44,33.5293506 44,21.6 C44,9.6706494 34.3293506,9.09494702e-13 22.4,9.09494702e-13 Z" fill-opacity="0.5" fill="#FFFFFF"></path>
	</g>
</svg>