<?xml version="1.0" encoding="UTF-8" standalone="no"?>
<svg width="200px" height="201px" viewBox="0 0 200 201" version="1.1" xmlns="http://www.w3.org/2000/svg" xmlns:xlink="http://www.w3.org/1999/xlink">
    <!-- Generator: Sketch 3.6.1 (26313) - http://www.bohemiancoding.com/sketch -->
    <title>Mark only</title>
    <desc>Created with Sketch.</desc>
    <defs></defs>
    <g id="Page-1" stroke="none" stroke-width="1" fill="none" fill-rule="evenodd">
        <g id="Artboard-2" transform="translate(-164.000000, -100.000000)" fill="#4B9ADD">
            <g id="Mark-only" transform="translate(164.000000, 100.000000)">
                <path d="M99.9656766,0.524752475 C44.9260726,0.524752475 0.148514851,45.3029703 0.148514851,100.341914 C0.148514851,155.381518 44.9260726,200.159076 99.9656766,200.159076 C155.005281,200.159076 199.782838,155.381518 199.782838,100.341914 C199.782838,45.3029703 155.005281,0.524752475 99.9656766,0.524752475 L99.9656766,0.524752475 Z M143.663366,30.1544554 L126.281188,60.5735974 C125.143234,60.4759076 123.994719,60.4151815 122.831023,60.4151815 L77.09967,60.4151815 C75.9366337,60.4151815 74.7874587,60.4759076 73.649505,60.5735974 L56.2673267,30.1544554 C68.9557756,22.2264026 83.9333333,17.6363036 99.9656766,17.6363036 C115.99802,17.6363036 130.975578,22.2264026 143.663366,30.1544554 L143.663366,30.1544554 Z M122.831023,123.157096 L77.09967,123.157096 C64.5471947,123.157096 54.3346535,112.922112 54.3346535,100.341914 C54.3346535,87.7617162 64.5471947,77.5267327 77.09967,77.5267327 L122.831023,77.5267327 C135.384158,77.5267327 145.59604,87.7617162 145.59604,100.341914 C145.59604,112.922112 135.384158,123.157096 122.831023,123.157096 L122.831023,123.157096 Z M17.2594059,100.341914 C17.2594059,76.9755776 27.0026403,55.8442244 42.6363036,40.7887789 L56.9722772,65.8765677 C45.1590759,72.8072607 37.2231023,85.6429043 37.2231023,100.341914 C37.2231023,115.011881 45.1630363,127.858086 56.9775578,134.79802 L42.6363036,159.89571 C27.0026403,144.840264 17.2594059,123.708911 17.2594059,100.341914 L17.2594059,100.341914 Z M56.2673267,170.529373 L73.650165,140.110231 C74.7881188,140.207921 75.9366337,140.268647 77.09967,140.268647 L122.831023,140.268647 C123.994719,140.268647 125.143234,140.207921 126.281188,140.110891 L143.663366,170.529373 C130.975578,178.457426 115.99802,183.047525 99.9656766,183.047525 C83.9333333,183.047525 68.9557756,178.457426 56.2673267,170.529373 L56.2673267,170.529373 Z M157.294389,159.89571 L142.958416,134.807261 C154.772277,127.876568 162.707591,115.041584 162.707591,100.341914 C162.707591,85.6719472 154.768317,72.8257426 142.953135,65.8858086 L157.294389,40.7887789 C172.928713,55.8442244 182.671287,76.9755776 182.671287,100.341914 C182.671287,123.708911 172.928053,144.840264 157.294389,159.89571 L157.294389,159.89571 Z" id="Fill-7"></path>
            </g>
        </g>
    </g>
</svg>