<?xml version="1.0" encoding="UTF-8" standalone="no"?>
<svg width="230px" height="316px" viewBox="0 0 230 316" version="1.1" xmlns="http://www.w3.org/2000/svg" xmlns:xlink="http://www.w3.org/1999/xlink">
    <!-- Generator: Sketch 3.6.1 (26313) - http://www.bohemiancoding.com/sketch -->
    <title>Logo+Mark</title>
    <desc>Created with Sketch.</desc>
    <defs></defs>
    <g id="Page-1" stroke="none" stroke-width="1" fill="none" fill-rule="evenodd">
        <g id="Artboard-2" transform="translate(-149.000000, -414.000000)">
            <g id="Logo+Mark" transform="translate(149.000000, 414.000000)">
                <g id="Mark-only-Copy-2" transform="translate(5.000000, 0.000000)" fill="#4B9ADD">
                    <path d="M109.962244,0.576966652 C49.4186799,0.576966652 0.163366337,49.8107285 0.163366337,110.326184 C0.163366337,170.842366 49.4186799,220.075402 109.962244,220.075402 C170.505809,220.075402 219.761122,170.842366 219.761122,110.326184 C219.761122,49.8107285 170.505809,0.576966652 109.962244,0.576966652 L109.962244,0.576966652 Z M158.029703,33.1548988 L138.909307,66.600821 C137.657558,66.4934108 136.394191,66.4266424 135.114125,66.4266424 L84.809637,66.4266424 C83.530297,66.4266424 82.2662046,66.4934108 81.0144554,66.600821 L61.8940594,33.1548988 C75.8513531,24.437985 92.3266667,19.3911597 109.962244,19.3911597 C127.597822,19.3911597 144.073135,24.437985 158.029703,33.1548988 L158.029703,33.1548988 Z M135.114125,135.411533 L84.809637,135.411533 C71.0019142,135.411533 59.7681188,124.158143 59.7681188,110.326184 C59.7681188,96.4942252 71.0019142,85.2408354 84.809637,85.2408354 L135.114125,85.2408354 C148.922574,85.2408354 160.155644,96.4942252 160.155644,110.326184 C160.155644,124.158143 148.922574,135.411533 135.114125,135.411533 L135.114125,135.411533 Z M18.9853465,110.326184 C18.9853465,84.634839 29.7029043,61.4008637 46.899934,44.8473638 L62.669505,72.43145 C49.6749835,80.0517643 40.9454125,94.1645863 40.9454125,110.326184 C40.9454125,126.455849 49.6793399,140.580283 62.6753135,148.210758 L46.899934,175.80573 C29.7029043,159.252231 18.9853465,136.018255 18.9853465,110.326184 L18.9853465,110.326184 Z M61.8940594,187.49747 L81.0151815,154.051548 C82.2669307,154.158958 83.530297,154.225726 84.809637,154.225726 L135.114125,154.225726 C136.394191,154.225726 137.657558,154.158958 138.909307,154.052273 L158.029703,187.49747 C144.073135,196.214384 127.597822,201.261209 109.962244,201.261209 C92.3266667,201.261209 75.8513531,196.214384 61.8940594,187.49747 L61.8940594,187.49747 Z M173.023828,175.80573 L157.254257,148.220919 C170.249505,140.600604 178.97835,126.488508 178.97835,110.326184 C178.97835,94.1965191 170.245149,80.0720851 157.248449,72.4416104 L173.023828,44.8473638 C190.221584,61.4008637 200.938416,84.634839 200.938416,110.326184 C200.938416,136.018255 190.220858,159.252231 173.023828,175.80573 L173.023828,175.80573 Z" id="Fill-7"></path>
                </g>
                <g id="Wordmark-Copy-2" transform="translate(0.000000, 238.000000)" fill="#744196">
                    <path d="M0.540068259,0.3471 L15.63843,0.3471 L33.4622526,54.3114 L51.2860751,0.3471 L66.3836519,0.3471 L40.801058,76.39788 L26.1226621,76.39788 L0.540068259,0.3471" id="Fill-1"></path>
                    <path d="M69.4089761,24.30714 L83.7733788,24.30714 L83.7733788,76.39788 L69.4089761,76.39788 L69.4089761,24.30714 Z" id="Fill-2"></path>
                    <path d="M88.4864164,63.68934 L116.060512,36.91428 L88.9055973,36.91428 L88.9055973,24.30714 L135.352253,24.30714 L135.352253,37.1241 L107.778157,63.79464 L135.876621,63.79464 L135.876621,76.39788 L88.4864164,76.39788 L88.4864164,63.68934" id="Fill-3"></path>
                    <path d="M136.914369,50.35446 C136.914369,35.35194 148.970922,23.2674 164.068498,23.2674 C179.16686,23.2674 191.224983,35.35194 191.224983,50.35446 C191.224983,65.3562 179.16686,77.44152 164.068498,77.44152 C148.970922,77.44152 136.914369,65.3562 136.914369,50.35446 L136.914369,50.35446 Z M177.281331,50.35446 C177.281331,42.95772 171.409659,36.80898 164.068498,36.80898 C156.62529,36.80898 150.963993,42.95772 150.963993,50.35446 C150.963993,57.75042 156.62529,63.89604 164.068498,63.89604 C171.409659,63.89604 177.281331,57.75042 177.281331,50.35446 L177.281331,50.35446 Z" id="Fill-4"></path>
                    <path d="M194.882218,24.30714 L209.141433,24.30714 L209.141433,32.85204 C211.763276,27.43416 216.482594,24.30714 223.611809,24.30714 L229.377509,24.30714 L229.377509,38.16384 L220.256792,38.16384 C212.602423,38.16384 209.247406,42.12468 209.247406,51.81072 L209.247406,76.39788 L194.882218,76.39788 L194.882218,24.30714" id="Fill-5"></path>
                    <path d="M69.3595222,7.53402 C69.3595222,3.5646 72.5975768,0.3471 76.59157,0.3471 C80.5855631,0.3471 83.8236177,3.5646 83.8236177,7.53402 C83.8236177,11.50266 80.5855631,14.72016 76.59157,14.72016 C72.5975768,14.72016 69.3595222,11.50266 69.3595222,7.53402" id="Fill-6"></path>
                </g>
            </g>
        </g>
    </g>
</svg>