<?xml version="1.0" encoding="UTF-8" standalone="no"?>
<svg width="293px" height="100px" viewBox="0 0 293 100" version="1.1" xmlns="http://www.w3.org/2000/svg" xmlns:xlink="http://www.w3.org/1999/xlink">
    <!-- Generator: Sketch 3.6.1 (26313) - http://www.bohemiancoding.com/sketch -->
    <title>Reversed_Logotype</title>
    <desc>Created with Sketch.</desc>
    <defs></defs>
    <g id="Page-1" stroke="none" stroke-width="1" fill="none" fill-rule="evenodd">
        <g id="Artboard-2" transform="translate(-630.000000, -522.000000)" fill="#FFFFFF">
            <g id="Reversed_Logotype" transform="translate(630.000000, 522.000000)">
                <path d="M0.688,0.445 L19.922,0.445 L42.628,69.63 L65.334,0.445 L84.567,0.445 L51.977,97.946 L33.278,97.946 L0.688,0.445" id="Fill-1"></path>
                <path d="M88.421,31.163 L106.72,31.163 L106.72,97.946 L88.421,97.946 L88.421,31.163 Z" id="Fill-2"></path>
                <path d="M112.724,81.653 L147.851,47.326 L113.258,47.326 L113.258,31.163 L172.427,31.163 L172.427,47.595 L137.3,81.788 L173.095,81.788 L173.095,97.946 L112.724,97.946 L112.724,81.653" id="Fill-3"></path>
                <path d="M174.417,64.557 C174.417,45.323 189.776,29.83 209.009,29.83 C228.243,29.83 243.604,45.323 243.604,64.557 C243.604,83.79 228.243,99.284 209.009,99.284 C189.776,99.284 174.417,83.79 174.417,64.557 L174.417,64.557 Z M225.841,64.557 C225.841,55.074 218.361,47.191 209.009,47.191 C199.527,47.191 192.315,55.074 192.315,64.557 C192.315,74.039 199.527,81.918 209.009,81.918 C218.361,81.918 225.841,74.039 225.841,64.557 L225.841,64.557 Z" id="Fill-4"></path>
                <path d="M248.263,31.163 L266.428,31.163 L266.428,42.118 C269.768,35.172 275.78,31.163 284.862,31.163 L292.207,31.163 L292.207,48.928 L280.588,48.928 C270.837,48.928 266.563,54.006 266.563,66.424 L266.563,97.946 L248.263,97.946 L248.263,31.163" id="Fill-5"></path>
                <path d="M88.358,9.659 C88.358,4.57 92.483,0.445 97.571,0.445 C102.659,0.445 106.784,4.57 106.784,9.659 C106.784,14.747 102.659,18.872 97.571,18.872 C92.483,18.872 88.358,14.747 88.358,9.659" id="Fill-6"></path>
            </g>
        </g>
    </g>
</svg>